<svg xmlns="http://www.w3.org/2000/svg" xmlns:xlink="http://www.w3.org/1999/xlink" width="612px" height="898px" viewBox="0 0 612 898"><title>Illustration</title><defs><linearGradient x1="53.2864451%" y1="17.6320226%" x2="46.9397909%" y2="80.1406929%" id="linearGradient-1"><stop stop-color="#FFFFFF" offset="0%"></stop><stop stop-color="#FFFFFF" stop-opacity="0" offset="100%"></stop></linearGradient><linearGradient x1="40.6551733%" y1="84.9067789%" x2="55.5744127%" y2="8.66087123%" id="linearGradient-2"><stop stop-color="#FFFFFF" offset="0%"></stop><stop stop-color="#FFFFFF" stop-opacity="0" offset="100%"></stop></linearGradient><linearGradient x1="51.2556322%" y1="15.5503664%" x2="48.7443837%" y2="84.4491866%" id="linearGradient-3"><stop stop-color="#FFFFFF" offset="0%"></stop><stop stop-color="#FFFFFF" stop-opacity="0" offset="100%"></stop></linearGradient><linearGradient x1="65.6407358%" y1="-21.5483163%" x2="41.8954279%" y2="88.4247087%" id="linearGradient-4"><stop stop-color="#FFFFFF" offset="0%"></stop><stop stop-color="#FFFFFF" stop-opacity="0" offset="100%"></stop></linearGradient><linearGradient x1="114.653101%" y1="50.0074724%" x2="8.22910974%" y2="49.9952448%" id="linearGradient-5"><stop stop-color="#FFFFFF" offset="0%"></stop><stop stop-color="#FFFFFF" stop-opacity="0" offset="100%"></stop></linearGradient><linearGradient x1="48.3624688%" y1="83.3690633%" x2="51.6409375%" y2="16.561513%" id="linearGradient-6"><stop stop-color="#FFFFFF" offset="0%"></stop><stop stop-color="#FFFFFF" stop-opacity="0" offset="100%"></stop></linearGradient><linearGradient x1="60.2811897%" y1="6.71683519%" x2="45.2464702%" y2="70.0120829%" id="linearGradient-7"><stop stop-color="#FFFFFF" offset="0%"></stop><stop stop-color="#FFFFFF" stop-opacity="0" offset="100%"></stop></linearGradient><linearGradient x1="59.3515805%" y1="32.2077059%" x2="40.6484195%" y2="67.7922941%" id="linearGradient-8"><stop stop-color="#FFFFFF" offset="0%"></stop><stop stop-color="#FFFFFF" stop-opacity="0" offset="100%"></stop></linearGradient><linearGradient x1="59.351634%" y1="32.2075882%" x2="40.648366%" y2="67.7924118%" id="linearGradient-9"><stop stop-color="#FFFFFF" offset="0%"></stop><stop stop-color="#FFFFFF" stop-opacity="0" offset="100%"></stop></linearGradient><linearGradient x1="54.4499515%" y1="11.9278131%" x2="44.4319191%" y2="97.6385932%" id="linearGradient-10"><stop stop-color="#FFFFFF" offset="0%"></stop><stop stop-color="#FFFFFF" stop-opacity="0" offset="100%"></stop></linearGradient></defs><g id="Illustrations" stroke="none" stroke-width="1" fill="none" fill-rule="evenodd"><g id="#17" transform="translate(-269.000000, -154.000000)"><g id="Illustration" transform="translate(269.000000, 154.000000)"><path d="M217.1,2.1 C223.4,5.7 228.4,14.5 228.4,21.7 L228.4,214.9 L285.7,248 L285.7,447.3 C285.7,454.5 280.6,457.4 274.4,453.8 C268.1,450.2 263.1,441.4 263.1,434.2 L263.1,261 L205.7,228 L205.7,8.6 C205.7,1.4 210.8,-1.5 217.1,2.1 Z" id="Path" fill="url(#linearGradient-1)" fill-rule="nonzero" opacity="0.3"></path><path d="M268.3,786.3 C274.6,789.9 279.6,787 279.6,779.8 L279.6,635 L336.9,668.1 L336.9,573.3 C336.9,566.1 331.8,557.3 325.6,553.7 C319.3,550.1 314.3,553 314.3,560.2 L314.3,628.9 L257,595.8 L257,766.7 C257,773.9 262.1,782.7 268.3,786.3 Z" id="Path" fill="url(#linearGradient-2)" fill-rule="nonzero" opacity="0.3"></path><path d="M356.4,88.9 C362.7,92.5 367.7,101.3 367.7,108.5 L367.7,437.2 C367.7,444.4 362.6,447.3 356.4,443.7 C350.1,440.1 345.1,431.3 345.1,424.1 L345.1,95.4 C345.1,88.2 350.2,85.3 356.4,88.9 Z" id="Path" fill="url(#linearGradient-3)" fill-rule="nonzero" opacity="0.3"></path><path d="M293.2,789.8 C293.2,809.6 281.6,819 267.3,810.7 C253,802.5 241.4,779.7 241.4,759.9 C241.4,740.1 253,730.7 267.3,739 C281.6,747.2 293.2,770 293.2,789.8 Z" id="Path" fill="#45F5A1" opacity="0.900855655"></path><path d="M482.5,253.7 C476.2,250.1 471.2,253 471.2,260.2 L471.2,357.8 L413.9,324.7 L413.9,444.6 C413.9,451.8 419,460.6 425.2,464.2 C431.5,467.8 436.5,464.9 436.5,457.7 L436.5,363.9 L493.8,397 L493.8,273.3 C493.8,266.1 488.7,257.3 482.5,253.7 Z" id="Path" fill="url(#linearGradient-4)" fill-rule="nonzero" opacity="0.3"></path><path d="M507.9,278.2 C507.9,297.8 496.4,307 482.3,298.9 C468.2,290.7 456.7,268.3 456.7,248.7 C456.7,229.1 468.1,219.9 482.3,228 C496.5,236.2 507.9,258.6 507.9,278.2 Z" id="Path" fill="#45F5A1" opacity="0.900855655"></path><path d="M592.1,787.4 C592.1,780.2 587,771.4 580.8,767.8 L491.8,716.4 L491.8,641.9 L403.4,590.9 C397.1,587.3 392.1,590.2 392.1,597.4 C392.1,604.6 397.2,613.4 403.4,617 L469.2,655 L469.2,729.5 L580.9,793.9 C587.1,797.5 592.1,794.6 592.1,787.4 Z" id="Path" fill="url(#linearGradient-5)" fill-rule="nonzero" opacity="0.3"></path><path d="M377.3,895.8 C371,892.2 366,883.4 366,876.2 L366,639.2 C366,632 371.1,629.1 377.3,632.7 C383.6,636.3 388.6,645.1 388.6,652.3 L388.6,889.3 C388.6,896.5 383.5,899.4 377.3,895.8 Z" id="Path" fill="url(#linearGradient-6)" fill-rule="nonzero" opacity="0.3"></path><path d="M611.9,796 C611.9,815.8 600.3,825.2 586,816.9 C571.7,808.7 560.1,785.9 560.1,766.1 C560.1,746.3 571.7,736.9 586,745.2 C600.3,753.4 611.9,776.2 611.9,796 Z" id="Path" fill="#45F5A1" opacity="0.900855655"></path><polygon id="Path" fill="url(#linearGradient-7)" fill-rule="nonzero" opacity="0.3" points="52 398.2 214.8 492.2 214.8 793.8 52 699.8"></polygon><polygon id="Path" fill="#FFFFFF" fill-rule="nonzero" opacity="0.15" points="77.8 590 174.8 646 174.8 657.9 77.8 601.9"></polygon><polygon id="Path" fill="#FFFFFF" fill-rule="nonzero" opacity="0.15" points="87.9 619.3 164.8 663.7 164.8 675.6 87.9 631.2"></polygon><polygon id="Path" fill="#45F5A1" opacity="0.900855655" points="114.1 673 0.9 607.6 0.9 641.3 114.2 706.7"></polygon><polygon id="Path" fill="#FFFFFF" fill-rule="nonzero" opacity="0.2" points="168.7 522.3 143.4 542.3 126.4 520.5 104.2 539.7 95.4 533.3 128.1 505.8 144.7 527.6 163 514"></polygon><path d="M187.7,521.8 C187.7,533.1 181.1,538.4 173,533.7 C164.9,529 158.3,516.1 158.3,504.8 C158.3,493.5 164.9,488.2 173,492.9 C181.1,497.6 187.7,510.6 187.7,521.8 Z" id="Path" fill="#45F5A1" opacity="0.900855655"></path><path d="M111.9,543.6 C111.9,554.9 105.3,560.2 97.2,555.5 C89.1,550.8 82.5,537.9 82.5,526.6 C82.5,515.3 89.1,510 97.2,514.7 C105.3,519.4 111.9,532.3 111.9,543.6 Z" id="Path" fill="#45F5A1" opacity="0.900855655"></path><polygon id="Path" fill="url(#linearGradient-8)" fill-rule="nonzero" opacity="0.2" points="611.5 595.4 456.7 506 456.7 586.6 611.5 676"></polygon><polygon id="Path" fill="#FFFFFF" fill-rule="nonzero" opacity="0.15" points="496.3 548.4 542.9 575.3 542.9 585 496.3 558"></polygon><polygon id="Path" fill="#FFFFFF" fill-rule="nonzero" opacity="0.15" points="496.4 567.8 595.6 625 595.6 634.8 496.4 577.6"></polygon><path d="M488.2,551.2 C488.2,557.8 484.3,561 479.4,558.2 C474.5,555.4 470.6,547.7 470.6,541.1 C470.6,534.5 474.5,531.3 479.4,534.1 C484.3,536.9 488.2,544.6 488.2,551.2 Z" id="Path" fill="#45F5A1" opacity="0.900855655"></path><polygon id="Path" fill="url(#linearGradient-9)" fill-rule="nonzero" opacity="0.2" points="214.3 348.9 59.5 259.5 59.5 340.1 214.3 429.5"></polygon><polygon id="Path" fill="#FFFFFF" fill-rule="nonzero" opacity="0.15" points="99.1 301.9 145.7 328.8 145.7 338.5 99.1 311.6"></polygon><polygon id="Path" fill="#FFFFFF" fill-rule="nonzero" opacity="0.15" points="99.2 321.3 198.4 378.5 198.4 388.3 99.2 331.1"></polygon><path d="M91,304.7 C91,311.3 87.1,314.5 82.2,311.7 C77.3,308.9 73.4,301.2 73.4,294.6 C73.4,288 77.3,284.8 82.2,287.6 C87,290.4 91,298.1 91,304.7 Z" id="Path" fill="#45F5A1" opacity="0.900855655"></path><path d="M418.8,524.1 C418.8,573.1 390.1,596.3 354.8,575.9 C319.4,555.5 290.8,499.2 290.8,450.2 C290.8,401.2 319.5,378 354.8,398.4 C390.2,418.8 418.8,475.1 418.8,524.1 Z" id="Path" fill="url(#linearGradient-10)" fill-rule="nonzero" opacity="0.2"></path><g id="Group" transform="translate(261.000000, 411.000000)" fill="#45F5A1" fill-rule="nonzero"><path d="M68.6,88.8 C70.3,88.3 71.2,86.5 71.2,83.4 C71.2,80.2 70.3,77.4 68.6,75.1 C66.8,72.8 64.2,70.6 60.8,68.7 C59.7,68.1 58.5,67.4 57.2,66.8 C55.9,66.1 54.8,65.5 53.8,65.1 L53.8,82.3 L60.1,85.9 C64.1,88.2 66.9,89.1 68.6,88.8 Z" id="Path" opacity="0.902785528"></path><path d="M61.8,100.6 L53.7,95.9 L53.7,116.5 C54.7,117.2 55.7,117.9 56.7,118.5 C57.8,119.2 59,119.9 60.3,120.7 C64.2,122.9 67.3,124 69.7,123.8 C72.1,123.7 73.3,121.5 73.3,117.4 C73.3,113.8 72.3,110.6 70.3,107.9 C68.3,105.2 65.5,102.7 61.8,100.6 Z" id="Path" opacity="0.902785528"></path><path d="M64,7.4 C28.6,-13 0,10.2 0,59.2 C0,108.2 28.7,164.5 64,184.9 C99.4,205.3 128,182.1 128,133.1 C128,84.1 99.3,27.8 64,7.4 Z M79.8,140.4 C76.4,141.7 71.7,141 65.7,138.3 L65.7,150.3 L53.4,143.2 L53.4,131.3 C52.5,130.8 51.7,130.2 50.8,129.6 C47.7,127.5 44.5,125 41.1,122.1 L41.1,44.7 C43.7,45.5 46.6,46.7 49.8,48.2 C51,48.7 52.2,49.3 53.4,49.9 L53.4,38 L65.7,45.1 L65.6,57.3 C66.6,58.1 67.6,58.8 68.5,59.6 C71.6,62.1 74.3,64.9 76.5,67.9 C78.7,70.9 80.4,74.3 81.6,77.9 C82.9,81.5 83.5,85.4 83.5,89.6 C83.5,96 81.3,99.8 76.9,100.9 C80.6,104.9 83.1,108.9 84.4,113 C85.7,117 86.4,121.2 86.4,125.3 C86.4,133.7 84.2,138.7 79.8,140.4 Z" id="Shape" opacity="0.897140067"></path></g></g></g></g></svg>